<?xml version="1.0" encoding="UTF-8"?>
<svg xmlns="http://www.w3.org/2000/svg" viewBox="0 0 200 200" width="200" height="200">
  <style>
    .stroke { stroke: #000000; stroke-width: 3; stroke-linecap: round; stroke-linejoin: round; }
  </style>
  <!-- Two rounded bat-style wings -->
  <!-- Left wing -->
  <path d="M 100 100 C 60 100 30 60 20 30 C 35 40 50 50 65 45 C 55 40 50 30 45 20 C 60 25 70 35 80 40 C 75 25 75 15 80 10 C 85 20 88 35 95 50 C 98 65 100 80 100 100 Z" fill="#4A0080" class="stroke"/>
  <!-- Right wing -->
  <path d="M 100 100 C 140 100 170 60 180 30 C 165 40 150 50 135 45 C 145 40 150 30 155 20 C 140 25 130 35 120 40 C 125 25 125 15 120 10 C 115 20 112 35 105 50 C 102 65 100 80 100 100 Z" fill="#4A0080" class="stroke"/>
</svg>